<?xml version="1.0" encoding="UTF-8"?>
<svg id="Layer_2" data-name="Layer 2" xmlns="http://www.w3.org/2000/svg" viewBox="0 0 533.46 616">
  <defs>
    <style>
      .cls-1 {
        fill: #db969a;
      }

      .cls-2 {
        fill: #b0171f;
      }

      .cls-3 {
        fill: #af161e;
      }

      .cls-4 {
        fill: #b01921;
      }
    </style>
  </defs>
  <g id="Layer_1-2" data-name="Layer 1">
    <path class="cls-1" d="M348.22,547.45c-64.33,0-116.67-52.34-116.67-116.67s52.34-116.67,116.67-116.67,116.67,52.33,116.67,116.67-52.34,116.67-116.67,116.67M348.22,245.55c-35.84,0-69.32,10.27-97.7,27.97v28.27c-47.43,57.43-71.71,104.04-84.98,159.46,14.58,87.69,90.92,154.76,182.68,154.76,102.14,0,185.23-83.09,185.23-185.22s-83.09-185.23-185.23-185.23"/>
    <path class="cls-1" d="M250.52,273.51v-22.74H0v70.29h161.54c-68.02,94.09-89.56,170.04-96.36,289.63h83.89c2.68-60.54,6.44-107.52,16.48-149.44-1.65-9.92-2.55-20.09-2.55-30.47,0-66.29,35.02-124.54,87.52-157.27"/>
    <path class="cls-3" d="M250.52,273.51c-52.5,32.73-87.52,90.98-87.52,157.27,0,10.38.89,20.55,2.55,30.47,13.27-55.42,37.54-102.04,84.97-159.47v-28.27Z"/>
    <path class="cls-4" d="M416.09,447.58l4.69-5.51c3.24,3.09,7.59,5.17,11.81,5.17,5.1,0,7.89-2.31,7.89-5.85,0-3.73-2.92-4.92-7.03-6.66l-6.19-2.69c-4.46-1.86-9.17-5.39-9.17-12.02,0-7.21,6.37-12.78,15.22-12.78,5.3,0,10.43,2.19,13.98,5.78l-4.14,5.11c-2.87-2.46-5.96-3.9-9.84-3.9-4.29,0-7.09,2.01-7.09,5.32,0,3.57,3.44,4.89,7.2,6.42l6.12,2.56c5.39,2.25,9.16,5.66,9.16,12.23,0,7.35-6.09,13.47-16.27,13.47-6.13,0-12.03-2.42-16.33-6.64M389.06,429.24c6.21,0,9.59-2.58,9.59-7.74s-3.39-7.01-9.59-7.01h-6.41v14.75h6.41ZM389.56,435.67h-6.91v17.71h-8.04v-45.32h15.27c9.43,0,16.69,3.32,16.69,13.44,0,6.88-3.62,11.1-9.07,12.99l10.84,18.89h-9.04l-9.75-17.71ZM351.09,434.8l-1.58-5.54c-1.44-4.79-2.77-9.96-4.1-14.94h-.28c-1.25,5.02-2.58,10.15-4.03,14.94l-1.59,5.54h11.57ZM340.72,408.06h9.43l14.77,45.32h-8.51l-3.51-12.28h-15.21l-3.54,12.28h-8.21l14.78-45.32ZM290.04,408.06h27.27v6.77h-19.23v11.62h16.29v6.75h-16.29v13.42h19.93v6.77h-27.97v-45.32ZM259.6,436.53l-13.64-28.47h8.6l4.93,11.58c1.33,3.37,2.61,6.52,4.04,9.96h.28c1.42-3.44,2.85-6.6,4.17-9.96l4.93-11.58h8.38l-13.64,28.47v16.85h-8.04v-16.85Z"/>
    <path class="cls-2" d="M531.87,133.17c1.21,1.13,1.72,2.55,1.54,4.24-.38,12.45-3.98,23.68-10.79,33.65-6.81,10-16.39,17.87-28.71,23.63-12.33,5.76-26.82,8.62-43.44,8.62-25.78,0-45.73-6.63-59.83-19.94-14.11-13.29-21.62-32.19-22.56-56.71-.19-5.08-.28-13.38-.28-24.88s.09-20.18.28-25.45c.93-24.13,8.49-42.94,22.71-56.43,1.11-1.06,2.28-2.06,3.48-3.04l20.15,35.23c-3.4,6.78-5.32,15.31-5.7,25.65-.19,5.1-.28,12.92-.28,23.47s.09,18.58.28,24.04c1.12,30.17,15.04,45.25,41.76,45.25,11.22,0,20.31-2.41,27.32-7.2,7.01-4.82,11.91-13.05,14.72-24.75.74-2.63,1.68-4.49,2.79-5.52,1.13-1.04,2.82-1.55,5.05-1.55h27.19c1.68,0,3.12.56,4.34,1.69M446.09,32.18c11.17,0,20.15,2.36,26.94,7.07,6.78,4.72,11.55,12.81,14.29,24.29.74,2.58,1.65,4.39,2.76,5.41,1.1,1.01,2.75,1.52,4.94,1.52h26.67c1.46,0,2.78-.51,3.98-1.52,1.2-1.02,1.79-2.27,1.79-3.75v-.56c-.37-12.21-3.89-23.21-10.58-33.02-6.7-9.8-16.09-17.52-28.18-23.17-12.1-5.64-26.3-8.45-42.61-8.45-12.22,0-23.11,1.58-32.69,4.72l17.01,29.73c4.61-1.49,9.81-2.27,15.68-2.27M76.25,2.51h-9.76v32.81h8.36c15.7,0,27.19,3.64,34.47,10.89,7.28,7.26,11.11,18.63,11.49,34.08.36,10.93.56,17.92.56,20.93,0,2.83-.19,9.89-.56,21.21-.38,16.22-4.02,27.81-10.93,34.79-6.92,6.98-18.12,10.46-33.63,10.46h-35.59V2.51H7.86c-2.05,0-3.69.66-4.9,1.97-1.22,1.33-1.82,3.03-1.82,5.1v184.12c0,1.89.65,3.5,1.96,4.81,1.31,1.32,2.9,1.98,4.76,1.98h69.79c27.84,0,48.44-6.27,61.79-18.81,13.36-12.54,20.42-32.01,21.16-58.4.38-10.94.56-18.2.56-21.78,0-3.77-.18-11.13-.56-22.06C159.48,28.15,131.36,2.51,76.25,2.51M348.55,191.43l-40.64-72.12c11.76-4.14,20.92-10.89,27.47-20.22,6.53-9.34,9.8-20.88,9.8-34.64,0-19.8-6.5-35.08-19.47-45.81-13-10.75-30.97-16.13-53.96-16.13h-14.04v31.68h13.21c11.22,0,19.62,2.59,25.23,7.79,5.6,5.18,8.4,12.58,8.4,22.19s-2.8,16.93-8.4,21.92c-5.61,5-14.01,7.49-25.23,7.49h-38.95V2.5h-32.8c-2.05,0-3.69.66-4.9,1.97-1.22,1.33-1.81,3.03-1.81,5.11v184.12c0,1.88.65,3.49,1.95,4.8,1.31,1.32,2.9,1.98,4.76,1.98h25.78c2.05,0,3.74-.66,5.04-1.98,1.31-1.31,1.97-2.92,1.97-4.8v-67.88h38.39l35.87,67.03c1.3,2.27,2.79,4.1,4.48,5.52,1.69,1.41,4.01,2.12,7.01,2.12h25.77c1.49,0,2.85-.57,4.07-1.7,1.21-1.13,1.82-2.54,1.82-4.24,0-.95-.28-1.98-.84-3.11"/>
  </g>
</svg>