<?xml version="1.0" encoding="UTF-8"?>
<svg id="Ebene_1" xmlns="http://www.w3.org/2000/svg" version="1.1" viewBox="0 0 237.59 482.19">
  <!-- Generator: Adobe Illustrator 30.3.0, SVG Export Plug-In . SVG Version: 2.1.3 Build 182)  -->
  <defs>
    <style>
      .st0 {
        fill: #fff;
      }

      .st1 {
        fill: #0063ac;
      }
    </style>
  </defs>
  <rect class="st1" x=".12" y="244.75" width="115.12" height="115.13"/>
  <path class="st0" d="M29.32,263.61v45.29c0,23.96,11.85,32.85,27.61,32.85,16.64,0,29.08-9.6,29.08-33.2v-44.94h-10.03v45.62c0,16.91-7.41,24.42-18.71,24.42-10.27,0-17.9-7.31-17.9-24.42v-45.62h-10.05Z"/>
  <rect class="st1" x="122.35" y="244.75" width="115.12" height="115.13"/>
  <path class="st0" d="M160.43,340.77s-.12-54.86-.7-64.56l.35-.11c3.78,8.32,38.66,64.67,38.66,64.67h10.04v-76.88h-9.34s.22,53.5,1.12,63.77l-.35.1c-3.54-7.97-38.2-63.88-38.2-63.88h-10.96v76.88h9.36Z"/>
  <rect class="st1" x="122.35" y="366.95" width="115.12" height="115.12"/>
  <path class="st0" d="M199.37,391.68c-4.58-4.11-11.75-6.4-21.57-6.4-7.97,0-14.25.7-19.04,1.61v75.86h9.93v-30.8c2.3.57,5.02.68,7.99.68,9.7,0,18.24-2.89,23.48-8.44,4-4.02,6.05-9.49,6.05-16.43,0-6.86-2.62-12.43-6.83-16.07"/>
  <path class="st1" d="M176.9,425.09c-3.2,0-6.05-.23-8.22-.79v-29.88c1.71-.34,5.02-.8,9.35-.8,10.95,0,18.15,4.88,18.15,15.16,0,10.37-7.2,16.3-19.27,16.3"/>
  <rect class="st1" y="367.06" width="115.13" height="115.13"/>
  <path class="st0" d="M80.95,394.64c-6.73-6.27-16.87-9.48-31.13-9.48-7.88,0-15.04.69-21.22,1.61v75.62c5.13.69,10.96.89,18.14.89,14.93,0,26.8-3.84,34.12-11.04,7.05-7.06,11.04-17.35,11.04-29.89,0-12.43-3.99-21.45-10.94-27.72"/>
  <path class="st1" d="M48.68,455.34c-3.89,0-7.53,0-10.03-.47v-60.79c2.62-.56,6.51-1.01,11.62-1.01,20.98,0,31.27,11.29,31.14,29.64,0,20.75-11.53,32.74-32.74,32.63"/>
  <rect class="st1" x=".12" y="0" width="237.47" height="237.52"/>
  <path class="st0" d="M203.83,123.67c-3.32,4.7-7.34,9.12-10.42,13.93.34-3.8.8-8.48-.7-12.1-2.55-7.75-4.8-15.62-5.52-24.14l.07-3.26c1.93,8.7,10.48,14.69,9.94,24.44.2,2.37-.54,4.36-.97,6.45l.15.15.39-.43c1.26-4.78,1.9-9.82,3.86-14.28,2.8-6.41,6.29-12.9,4.87-20.65,4.27,9.15,2.99,21.35-1.67,29.9"/>
  <path class="st0" d="M198.57,74.39c5.61,7.6,6.85,19.68,2.75,28.39-1.5,3.7-2.59,7.63-3.18,11.71-.3-.69-.35-1.64-.6-2.44-2.23-8.51-10.29-14.59-13.62-22.62-1.04-2.63-1.93-5.35-2.43-8.2,3.53,6.55,12.27,9.94,14.65,17.16.98,1.84.93,4.11,1.51,6.07.13,0,.26-.09.26-.22-1.04-7.44-.73-15.23.29-22.56-.06-3.99-.45-7.85-2.66-10.92,1.42.82,2.07,2.41,3.03,3.64"/>
  <path class="st0" d="M194.62,72.94c1.48,6.65-.66,13.13.7,19.84l-.07.06c-3.61-7.11-11.3-10.47-16.58-16.16-3.08-3.39-4.4-7.51-5.15-11.87,3.03,7.31,11.19,8.93,15.88,15.06,1.58,1.42,2.09,3.39,3.1,5.01l.16-.17c-2.7-5.75-3.62-12.25-5.46-18.38-.97-2.66-2.84-5.28-5.34-6.97,6.16,1.27,11.49,7.69,12.76,13.58"/>
  <path class="st0" d="M178.17,57.68c4.65,4.15,6.74,9.53,8.11,15.1l.75,1.77c-6.74-4.83-12.84-11.36-17.15-18.22l-5.26-5.32c4.62,1.96,9.6,3.13,13.55,6.68"/>
  <path class="st0" d="M90.13,52.53c8.77-4.32,18.36-6.64,28.79-6.83,23.86.03,46.65,14.04,57.03,36.13,6.58,12.69,8.45,30.17,4.18,44.5-4.34,16.93-18.58,34.05-35.17,41.02-18.66,9.15-45.19,6.86-61.84-5.07-23.13-15.84-32.59-43.17-25.6-70.13,4.25-16.01,17-32.17,32.6-39.61"/>
  <path class="st0" d="M71.83,51.9c-4.65,4.08-7.88,9.24-11.32,14.05-3.1,3.82-7.05,6.36-10.58,9.65,1.91-3.92,1.98-8.61,4.66-12.21,3.83-6.69,10.92-9.02,17.24-11.48"/>
  <path class="st0" d="M46.4,66.1c2.24-2.81,5.12-4.77,8.35-5.59-6.25,4.29-5.85,12.02-7.85,18.45-.64,2.37-1.74,4.56-2.28,6.98l.17.13c1.05-2.76,2.88-5.34,5.14-7.59,4.47-4.11,11.06-6.68,13.24-12.76-.09,8.45-7.16,15.09-13.89,19.84-2.81,2.44-5.48,5.23-7,8.35-.16-2.12.32-4.27.16-6.54-.73-7.38-1.26-15.8,3.96-21.27"/>
  <path class="st0" d="M33.72,91.33c-.2-7.47,2.9-13.57,7.28-19.14.1-.07.21-.19.36-.17-4.81,7.31-.83,16.52-1.04,24.85l-.63,8.51c.08.06.08.31.31.22.28-.94.35-1.96.53-2.94,1.14-6.87,7.09-11.74,12.32-16.49,1.12-1.22,2.07-2.5,2.66-3.94-.41,3.41-1.49,6.86-2.91,10.02-4.05,7.91-11.56,14.39-12.91,23.44-.66-8.67-6.59-15.15-5.97-24.36"/>
  <path class="st0" d="M30.06,101.96c.54-2.34.97-4.75,1.98-6.89-1.94,9.88,4.71,16.99,6.89,25.57.91,3.19,1.15,6.64,2.44,9.65.13.07.23-.07.32-.16-3.26-9.11,1.42-17.56,6.13-24.68,1.14-1.93,1.81-4.09,2.38-6.29.5,4.11-.53,8.86-1.14,13.13-1.13,5.44-2.84,10.59-4.33,15.89-.99,3.28-.73,7.02-.22,10.46l-.48-.38c-3.47-6.36-10.29-11.32-12.31-18.29-1.69-5.54-2.8-11.96-1.66-18.01"/>
  <path class="st0" d="M29.74,121.26c.77,10.48,12.03,16.02,17.26,24.68,1.23,1.78,2.31,3.73,3.95,5.21-.26-1.1-1.29-2.05-1.68-3.19-1.84-3.64-2.5-7.97-2.06-12.37.52-5.35,2.75-10.32,1.9-15.95,4.58,9.91,3.19,22.26,5.75,32.98.67,2.34,2.03,4.43,2.91,6.68-9.44-6.43-22.28-12.54-26.47-24.31-1.76-4.06-1.95-9.08-1.58-13.74"/>
  <path class="st0" d="M35.38,145.31c5.26,11.9,18.41,12.88,27.26,20.13,1.6,1.43,3.34,2.66,5.16,3.52l.09-.1c-2.04-1.84-4.37-3.92-5.8-6.3-5.16-7.18-3.34-17.25-7.21-24.97,3.52,4.2,6.71,8.57,8.84,13.35,3.16,7.79,4.36,16.58,11.68,22.47-7.93-2.59-17.19-1.86-24.16-6.74-7.62-4.68-14.43-12.63-15.86-21.37"/>
  <path class="st0" d="M48.89,167.5c8.41,9.59,22.19,6.39,33.42,8.89,1.57.23,3.04.85,4.72.6-1.34-.85-3.19-.75-4.66-1.52-8.8-3.11-10.1-12.63-14.88-19.05,6.12,4.05,11.23,9.52,16.88,14.81,4.06,3.54,8.91,5.18,14.04,6.24-1.22.44-2.85.31-4.17.66-9.21,2.29-19.47,5.98-29.25,2.65-6.35-1.99-12.91-7.02-16.1-13.29"/>
  <path class="st0" d="M163.26,189.83c-9.49,3.55-19.41-.16-26.81-5.78-3-1.91-5.65-4.66-9.55-4.4-1.39-.04-2.77.03-3.95.38,7.21,3.35,13.9,7.97,20.03,13.89-1.04,1.17-2.37,2.27-3.63,3.29-5.89-6.35-12.44-12.48-19.76-16.04-1.41.18-2.79,1.04-4.07,1.73-5.96,3.77-11.85,8.62-16.27,14.54l-3.81-3.13c6.08-6.13,12.8-10.91,20.12-14.34-7.2-2.27-11.91,3.76-17.39,6.84-6.4,4.46-15.57,6.55-23.31,3.48-4.15-1.58-8.15-3.9-11.16-7.66,6.09,4.18,15.12,4.63,22.03,1.91,9.28-4.02,18.88-9.11,30.05-6.69,1.75.04,3.46,1.78,5.11.29,8.29-2.16,17.68-.66,24.84,3.13l7.37,2.94c6.84,2.53,15.7,1.84,21.56-2.35-3,3.76-7.12,6.46-11.39,7.98"/>
  <path class="st0" d="M173.45,180.03c-10.68,4.02-21.4-.91-31.61-2.57l-1.96-.26v-.05c4.88-1.11,9.62-2.57,13.52-6.09,5.72-5.5,10.81-11.16,17.18-15.5-4.72,6.05-5.21,14.65-13.01,18.54-1.94,1.27-4.36,1.48-6.36,2.45,2.85.06,5.45-.96,8.26-1.25,10.45-1.63,22.4.04,29.71-8.86-2.73,6.2-9.52,11.39-15.73,13.58"/>
  <path class="st0" d="M179.36,169.18c-5.43,1.46-11.25,1.93-16.55,3.73,8.96-7.68,8.46-19.58,14.44-28.64,1.89-2.57,3.47-5.27,5.7-7.69-3.63,7.31-2.06,16.77-6.23,23.86-1.61,2.8-3.92,5.53-6.46,7.76.84-.05,1.57-.76,2.29-1.24,6.8-6.77,15.67-8.68,23.01-14.18,2.95-2.34,5.65-5.41,6.94-8.72-1.4,11.22-12.57,21.76-23.12,25.12"/>
  <path class="st0" d="M192.82,150.03c-4.21,2.75-8.48,5.3-12.53,8.44v-.36c6.21-10.32,3.16-24.48,6.98-35.8l1.43-3.8c-.79,7.05,2.27,13.04,2.07,20.12-.23,4.28-1.62,8.07-3.88,11.48h.38c3.04-3.98,5.42-8.21,8.97-12.02,5.5-5.31,11.1-10.75,11.83-18.12,1.86,12.3-5.03,23.09-15.26,30.06"/>
  <path class="st1" d="M145.19,149.21l.44-.61c1.9-1.48,3.95-2.88,5.63-4.71h.23c-.4-.12-.87.26-1.3.07-.9-.41-1.05-1.21-1.05-2.12l-3.89-4.02-.21-.6c-.3.76-.88,1.23-1.43,1.79.03.52-.16,1.28.45,1.62,1.26.41,2.91,1.24,3.19,2.72-.51,1.4-3.17,2.66-1.53,4.18.53.75-.75,1.04-.53,1.68"/>
  <path class="st1" d="M122.56,97.84c.73.41,1.14-.34,1.76-.5.88.09,1.56.86,2.1,1.42.56.25,1.11-.09,1.61-.28.35-2.63,3.65-2.25,4.62-4.71l-.6.22c-.25-.36-.88-.2-.84-.76.53-.52,1.23-1.31,1.89-1.52-2.84-1.78-5.78-3.3-9.02-4.11-1.27-.3-2.6-.33-3.81-.77.61,1.81.08,4.46.45,6.56l2.26.75c.68-1.1,2.13-1.31,2.76-2.37.41-.35.88,0,1.21.38.11.85-.13,1.71-.39,2.53-.85,1.71-2.88,1.92-4.02,3.17"/>
  <path class="st1" d="M156.28,119.11c-1.34,4.25-2.89,8.39-5.55,12.09-1.04,1.33-2.06,3.17-3.4,3.86l2.87,2.54c.15-.16.06-.41.1-.63,0-.38.18-.82.65-.77,1.39-.03,1.41,1.46,2.21,2.22-.17,1.2.89,2.15.54,3.26,7.98-8.42,11.97-18.73,12.7-30.16l.43-.5c-2.85.28-5.85.08-8.79.12l-.7-.21c.2,1.93-.32,3.79-.43,5.69l1.03,1.13c.3.44.2,1.11-.21,1.45-.45.3-1.01.27-1.45-.09"/>
  <path class="st1" d="M148.66,91.1c-1.06-2.02-2.77-3.82-4.23-5.63l-.15.39c-2.92,3.03-6.12,6.16-8.9,9.27.18.37.49.73.86.91.11-.75.54-1.43.6-2.21.75-1.04,1.9-.38,2.87-.16,1.52-.35,2.94.35,4.49.33,1.15.56,1.24,2.02,2.29,2.58.28.4.05.89-.32,1.21.32,2.37,1.45-.64,2.66-.06.5.19,1.14.12,1.51.66.19.98,1.4.81,1.46,1.74-.1.47-.6.6-.94.86.3.94-.95,1.54-.52,2.56,1.84.35,1.9-1.78,2.75-2.72-.47-1.64-.82-3.32-1.76-4.78-1.04-.21-1.67-1.46-2.72-1.67-2.03-.8.32-2.06.05-3.27"/>
  <path class="st1" d="M120.44,157.18c2.35-.79,5.07-.67,7.6-1.08-.5-.19-1.02-.3-1.4-.82-1.48-.1-2.19-1.64-2.65-2.82-.23-.84.35-1.54.69-2.27-.62-1.29-2.59-.36-3.74-.82-.31-.26-.54-.64-.97-.71l.46.71c0,2.6.32,5.25,0,7.82"/>
  <path class="st1" d="M122.48,132.49c.82.16.24,1.05.84,1.37,1.29-.42,2.29,1.1,3.32.15-.06-1.49,1.63-1.36,2.54-1.74,1.43-.85,3.04-1.99,2.88-3.89l-.24-.28c-.98,0-1.48.75-2.19,1.35-.91.52-1.35-.95-2.07-.6.03.16.19.23.33.28.17.23.24.7,0,.93-1.09.98-1.59-.49-2.61-.4v.4c.04.21-.06.56-.37.43-.65-1.04-1.94-.66-2.58-1.57-.4-.22-.79.06-1.07.31-.22.48-1.23-.06-.98.77-.78.27-.87,1.12-1.44,1.64-1-.17-1.42.95-2.35.93.09.18,0,.5.28.53.58.25,1.15.31,1.85.22.94-1.51,2.53-.25,3.86-.83"/>
  <path class="st1" d="M131.83,120.13c.05.47.12,1.1.52,1.5,1.23-.18.71,1.52,1.84,1.38.64-.19.04-.73.22-1.14-.18-.95-1.1-1.05-1.74-1.62-.07-.18.07-.34.15-.5-.46-.26-.68.03-.98.38"/>
  <path class="st1" d="M130.39,76.45c-3.21-1.13-6.71-1.62-10.2-2.14l.32.69-.07,8.57.83-.16c5.24.72,10.05,2.41,14.2,5.79l.23.67c1.4-2,3.56-3.71,5.23-5.6l1.59-.92-.76-.31c-3.49-2.91-7.27-5.12-11.38-6.59"/>
  <path class="st1" d="M71.53,111.77l.69,5.83c.27,2.24,1.27,4.39,1.19,6.61.34-.47.13-1.43.99-1.52-.36-.69.66-1.29.09-1.89.28-1.52.46-3.07,1.81-4.17,1.62-.07,1.74-2.2,3.36-2.29.82-.03,1.33,1.08,1.69,1.46-1.03-1.22-.97-3.25-.71-4.65l-.69.32c-2.94-.07-6.01.17-8.8-.23l.39.54Z"/>
  <path class="st1" d="M128.27,126.58c.75-.79,2.35-.75,2.42-1.89-1.1-.18-1.67.43-2.42,1.04-.11.24-.45.68,0,.85"/>
  <path class="st1" d="M148.4,110.7l.97.97c.98.66.32,2.08,1.36,2.66,1.23.63,1.68,2.06,2.23,3.13.18-.28.18-.63.28-.92.44-1.74.37-3.69.91-5.41-1.9.09-4.09.28-5.75-.44"/>
  <path class="st1" d="M135.63,132.87c1.07.28,1.81,1.62,3.16,1.21,1.15-.64,3.04.38,3.8-.82-.12-1.17.89-2.03,1.4-3.04l.37-.1c.64.66.6,1.65.89,2.37.88-.95,1.57-2,2.37-2.97,2.09-3.04,3.87-6.3,4.62-9.77-.85.03-1.71.17-2.49.43-.92-.05-2.04.48-2.83-.16-.27-.25-.47.13-.43.39-.33.47-.65,1.07-1.38.85-.57-.25-.57-.85-.76-1.3.03.35-.09.66-.16.98-.66.69-.89,1.36-1.35,2.12-.66.73-1.74.47-2.44,1.07-.13,1.52-1.8,1.2-2.75,1.69-.06.18.16.21.25.38.45.12,1.05.12,1.37-.32,1.33.36,1.04-1.32,1.82-1.9.66-.09,1.29-.66,1.97-.21.71.84.86,2.08.77,3.19-.77.75-.37,1.99-.91,2.88.12,1.05-1.15,1.52-.98,2.57-.4.47-1.11.54-1.75.54-2.48-.95-5.12-1.56-7.91-1.82-.25.1-.41.32-.38.61,1.15.6,2.53.63,3.73,1.13"/>
  <path class="st1" d="M116.76,160.6l.33-.48-.98.26c-12.34-.85-23.25-5.21-32.27-13.93l-.1.38-6.52,6.55c9.87,8.55,21.01,14.06,33.73,15.8,2.03.34,4.35.15,6.3.75l-.48-.75v-8.58Z"/>
  <path class="st1" d="M104.01,126.48c3.4,2.8,7.19,4.52,11.4,5.26.22-.85-.12-1.93.32-2.66.32-.7,1.16-.67,1.81-.55.38-.03.61-.5.38-.82-.91-.18-.49-1.19-.82-1.77.05-.31.58-.25.45-.67-.64-.5.31-1.07-.22-1.61.15-.11.27-.3.43-.4-1.92.81-3.96-.37-5.65-1.12-.84-.49-2.03-.94-2.21-1.97-1.36,2.21-3.97,4.24-5.87,6.3"/>
  <path class="st1" d="M100.76,116.61c-.31-.16-.35-.12-.6.15-.15,0-.34.04-.47-.06,0-1.81-2.03-.73-2.78-1.67.88,1.63,1.36,3.5,2.27,5.14.58,1.46,1.84,2.6,2.41,4.03.6-1.14,1.81-2.06,2.66-3.11.06-.47-.04-.89-.31-1.23-.27-.67-.01-1.61-.54-2.18-.81.29.3,1.1-.06,1.59-.34.22-.73-.08-.75-.39-.73-.12-1.31-.76-1.53-1.43.61-.38-.15-.54-.31-.85"/>
  <path class="st1" d="M106.84,117.53c-.2.79-.73,1.48-1.31,2.05l.1.06c.76-.54,1.31-1.51,2.29-1.57l-1.08-.54Z"/>
  <path class="st1" d="M116.02,148.29c-7.69-.38-14.43-3.2-20.41-7.67.19.76,1.19,1.25.91,2.19-.54.86-1.64.88-2.52.86-1.82-.29-3.15,1.07-4.84,1.25-1.56.48-2.1-1.42-3.52-1.25,8.79,7.68,18.85,12.48,30.63,13.12l.89.6-.39-1.07v-8.36l-.75.32Z"/>
  <path class="st1" d="M81.84,144.17c-1.08-.76-2.04-1.99-2.94-3.04-1.05-.28-2.13-1.01-2.66-2.02-.31-.36-.02-.98-.37-1.23l-.4.47c-1.11.54-1.5-.6-2.26-1.07-.99-.53-.5-2.41-1.84-2.06-.5-.02-.66-.59-.98-.91-1.22.12-1.55-1.24-2.21-1.9-.13.29,0,.66-.38.85-1.27.29-1.7-1.26-2.57-1.9-.23.1-.38.36-.7.29-.75-.66-1.26-1.62-1.3-2.66-1.04-1.19-.56-3.04-.37-4.47.19-.38.73-.59.62-1.07.29-.67.99-.73,1.66-.77.25.13.51.38.62.61.41-.26,1.34.02.98-.89.53-.47,1.34-.64,2.07-.76.5.64.75,1.37,1.43,1.96l-.44-.69c-.76-3.1-1.36-6.26-1.54-9.62.04-.19-.39-.28-.15-.46l.06.09c.04-.7-.02-1.3.09-1.77l-.85.32-8.8-.06c.51,10.12,3.19,19.33,7.76,27.78,2.24,4.17,5.53,7.93,8.41,11.83l6.3-6.52.77-.32Z"/>
  <path class="st1" d="M91.96,70.29c-1.96,1.36-3.77,3.13-5.79,4.34,2.35,1.48,4.27,3.96,6.39,5.91l.22.61c5.39-5.16,11.93-8.16,19-9.62,1.66-.17,3.35-.73,4.98-.38-.11-3.02-.38-6.15-.07-9.13-9.17.55-17.38,3.33-24.74,8.27"/>
  <path class="st1" d="M84.43,103.32c-.34,1.52-.15,3.29-.76,4.72,1.12-.52,2.72-.32,3.96-.16-.72-.38-.11-1.29-.54-1.81-.09-.78-.23-1.76.54-2.28-.09-1.3,1.29-1.96,1.43-3.13.34-1.32,1.86-.43,2.59-1.13.48-.26.06-.69.06-1.04.63-.87,1.62-.82,2.37-1.31.55-.82,1.24-1.71,2.12-2.2,1.9.06,1.94-2.61,3.73-2.67-2.46-1.87-4.81-4.36-6.99-6.52-4.36,5.23-7.34,10.98-8.51,17.54"/>
  <path class="st1" d="M85.64,116.16c.09-.57-.75-.72-.68-1.29.61-1.18.03-3.07,1.59-3.58-1.1.19-2.09.41-3.03-.28l.45.76c.07,2.09.91,4.08.46,6.2.36-.6.45-1.43,1.21-1.81"/>
  <polygon class="st1" points="94.36 139 94.24 138.79 94.36 139.18 94.36 139"/>
  <path class="st1" d="M83.83,77.27l-3.42,4.35c-5.6,7.68-8.26,16.57-9.05,26.26l8.68-.16.82.32c-.35-.23-.26-.61-.38-.92.7-9.02,3.86-17.06,10.09-23.77-2.4-2.08-4.65-4.3-6.68-6.67l-.05.59Z"/>
  <path class="st1" d="M110.56,136.45c.69-.74,1.52-1.23,2.38-1.55-2.81.57-5.29-1.45-7.68-2.56-1.36-1.02-3.14-1.84-3.96-3.35-1.88,2.28-4.08,4.65-6.29,6.45.96.06,1.52,1.15,2.34,1.62,4.75,3.95,10.66,5.85,16.16,7.21l-1.5-.7c-1.15-1.29-2.77-2.81-2.82-4.61,1.14-.39,1.01-1.65,1.38-2.51"/>
  <path class="st1" d="M88.92,111.29l-.25,1.67c-.39.99-1.62.25-2.18.93-.41.63.02,1.29.37,1.8-.88,2.03,2.01,2.67,1.96,4.5.89,1.14-.12,2.78,1.15,3.8.28,2.06-.29,4.85,1.52,6.46l.32,1.97c.37,1.35-1.62,1-1.37,2.21.39-.19.47.32.51.44v-.06c2.44-2.81,5.25-5.79,8.12-8.29l-1.19-1.21c-2.25-3.36-4.02-6.94-4.88-10.86l-.91-.47c-.04,1.01-.52,1.8-.44,2.81l-.32.38c-.66-.02-1.08-.57-1.64-.92-.14-.35-.48-.91.06-1.19.32-.03.53.06.77.21.28-.34.16-.84.32-1.29.07-.76-.59-1.46-.12-2.12.61-.06,1.06.67,1.3,1.07.61.19,1.09-.31,1.59-.54,0-.54.75-1.27-.07-1.58.45-1.24.13-2.54-.07-3.73-.33-1.05-1.51-.86-2.36-.76-2.57.82.41,2.75-.22,4.33-.36.92-1.31.07-1.97.44"/>
  <path class="st1" d="M170.02,111.14l-.53-.38.31.86c-.5,10.53-4.01,19.84-10.04,28.11-1.16,1.38-2.25,3.09-3.72,4.07,2.41,1.9,5.07,4.75,7.05,6.94l.25-.48c9.69-11.05,15.2-23.84,15.8-38.65l.39-.76-.47.23-9.03.06Z"/>
  <path class="st1" d="M84.28,72.39l.15-.44c9.24-8.41,20-13.04,32.33-13.61l-.28-.75-.1-7.6.26-.88c-12.73.5-24.02,4.84-34.04,12.06-1.94,1.33-3.65,3.35-5.61,4.5h.27c2.51,1.82,4.89,4.46,7.01,6.73"/>
  <path class="st1" d="M116.34,74.55c-8.04.58-15.02,3.92-21.12,8.97,2.41,1.66,4.56,4.36,6.74,6.28.16-.21.32-.43.48-.69,3.01-2.14,6.12-4.1,9.66-4.99,1.57-.16,3.13-.91,4.77-.55-.34-2.98-.34-6.26,0-9.33l-.53.31Z"/>
  <path class="st1" d="M116.76,87.08c-5.09.67-9.77,2.41-13.5,6.36h.68c.77.76,1.99.6,2.57,1.62.29.57-.54.5-.51.97.16.14.39.16.51.38.6.21.47-.34.7-.59.78-.79.91.76,1.67.76.54-.35,1.3-.38,1.67.22.52-.44,1.59-.04,1.75-.85.99-1.05.44-2.66,1.9-3.32.51.27-.03.76.16,1.2.97.41,2.08-.83,2.87.16-.72-2.06-.55-4.63-.48-6.91"/>
  <path class="st1" d="M117.09,101.27c-.94,1.57-2.53,1.93-4.01,2.37-.42.5-.32,1.62-1.3,1.51-.32.71-1.39,1.11-.98,2.13-.52,1.07-.27,2.47-.54,3.64-1.87,1.17-1.34-1.56-2.27-2.12l-.34.54c-.36.09-.61-.13-.88-.38-.28-.12-.77-.2-1.02.06-.41.7-1.04,1.27-.88,2.21-.19.56-1.14.38-1.01.98,1.05-.03,2.17-.22,3.19-.44.74.19,1.33-.35,2.06-.38.24.12.55.38.44.75h.26c.5-.38.71-.96.5-1.51.07-.67.8-.67,1.23-.86.41.19.16.6.23.93,1.42.53-.35,1.57-.55,2.33-.38.61,0,1.97-1.19,1.78-.21-.06-.36-.29-.31-.55h-.16c-.03.52.35,1.2.85,1.43.88-.73.91-1.96,2.19-2.12.65-.69-.3-1.77.69-2.34,1.64-.04,3.39-.73,4.7.59-.1.57-.31.84.16,1.31-.33.73-.53,1.52-1.14,2.12.15.41.04.91-.34,1.19-.43,1.93-2.64,1.01-3.94,1.68,1.99,1.51,4.4,2.08,6.98,1.89,1.36-.06.77-1.74,1.46-2.5.44-2.21,2.47-.7,3.71-1.31.47-.94.94-1.86,1.06-2.94-.78-.5-1.09-1.46-.85-2.37-.54-.73-.48-2.06-1.66-2.19-.17-.25-.03-.58.14-.75-.02-.7.66-.92.86-1.46-.72-.47-.53-1.52-.48-2.13-1.24.36-1.36-1.25-2.28-1.6-.22-.73-1.01-.86-1.64-.98-1.52.73-1.77-1.14-2.91-1.59-.12-.35-.39-.86,0-1.14.57-.48,1.32-.07,1.98-.11l-.53-.28c-.5-.57-1.62-.21-2.28,0,.64.64.36,1.78.76,2.57"/>
  <path class="st1" d="M68.32,107.98l-.21-1.24c.61-10.1,3.82-19.08,9.5-27.11,1.41-1.62,2.46-3.64,4.24-4.85-2.06-1.93-4.2-4.18-6.37-6.29l-.21-.86c-9.03,10.03-14.58,21.48-16.2,34.56-.36,1.9-.12,3.86-.5,5.8,3.16-.26,6.6-.26,9.77,0"/>
  <path class="st1" d="M153.93,145.79c-.9,1.73-2.86,2.84-4.35,4.18-2.05,2.06-5.41,2.5-6.46,5.48-1.1,1-1.48,2.59-3.02,3.15-.59,1.52-2.2,1.43-3.11,2.53-2.65,2.38-4.37-1.51-6.77-1.98l-4.84.85c-1.68,0-3.36.6-4.94.06.23,3.22.23,6.7,0,9.94l.6-.38c15.26-.66,28.42-6.45,39.72-16.71l-6.67-6.36-.15-.75Z"/>
  <path class="st1" d="M120.28,57.52c0-.28.12-.53.3-.74.44-.27.81.12.99.43.05.45.24,1.22-.14,1.47.38.06.58-.23.91-.23,7.25.54,13.96,2.65,19.98,6.07v-.15c1.24-.6,2.81-1.4,4.08-.32,1.52-.57,1.8,1.3,3.04,1.52,1.49.89,3.17,2.54,3.36,4.28.27.58,1.17.98,1.3,1.59,1.02-2.15,3.04-3.68,4.79-5.54l1.06-.45c-9.55-9.1-20.91-14.14-33.58-15.88-2.01-.35-4.24-.16-6.16-.76.39,2.5.28,5.92.09,8.73"/>
  <path class="st1" d="M120.28,71.14c1.2-.42,2.43.1,3.64.13,6.2,1.01,12.07,3,17.02,6.83-.59-.64-1.32-1.36-1.45-2.28.11-.12.23-.15.39-.12.07-.98-.98-1.49-1.12-2.38.15-.18.38-.37.69-.28,1.07,1.02,1.98,2.12,2.78,3.25.7-.28,1.27.17,1.78.54.91.54.35,1.72,1.05,2.35.12,1.87,2.4,2.92,2.27,4.78.02.44.56.09.75.32l1.9,2.33c-.35.45-.06.99.33,1.29.84.4,1.32-.69,2.16-.53,1.23.7-.18,1.52-.06,2.28.48.03,1.09-.38,1.47.1.16.7-.57,1.14-.87,1.59,0,.69.58.54,1.09.69.56-.03.92.67.76,1.14,1.58,1.64-.48,3.41.28,5.16.5,1.13-.12,2.24-.83,3.1.04,1.39-1.23,2.24-1.72,3.42l-1.62.31c-.86.85.73,1.9-.13,2.44l3.55.07-.39-.38c-.49-1.39-.38-3.27.48-4.5.55-1.14.67-2.51,1.68-3.48.22-.06.63-.47.82,0,.07,1.07-.03,2.31-.53,3.26,1.02,1.45.88,3.36.97,5.16,3.14-.19,6.21-.25,9.28-.22l-.28-.61c-.48-5.85-1.68-11.4-4.12-16.39-.66.04-1.14.57-1.9.38-.25-.09-.41-.34-.38-.63-1.27-1.2-2.07-2.79-3.47-3.87-1.64.16-2.36-1.71-3.82-1.89-1.29-.54-.4-2.63-2.27-2.05-.91-.39-1.81-1.08-1.99-2.12,0-1.64-.32-3.42-1.79-4.5-1.15-.41-1.61,1.11-2.77.86-.62-.32-.34-1.14-.55-1.68-.21-.48-.75-.82-.66-1.46,1.48-1.96-1.8-1.92-1.08-3.86-.2-1.39-1.6-1.94-2.34-3.04-4.91-2.22-9.81-3.73-15.35-4.4-1.36-.19-2.62.09-3.79-.53l.31.59c-.07,2.95.14,6.08-.16,8.84"/>
  <path class="st1" d="M154.9,74.39c.68.16.87.94,1.32,1.42,2.3,1.23,2.9,3.71,4.93,5.09,1.14,2.39,3.77,4.21,3.86,6.93,2.75,6.08,4.62,12.51,4.8,19.66l-.24.37c.28,0,.53-.12.75-.28l9.12-.17c-.6-.88-.35-2.18-.51-3.25-1.2-14.08-7.21-26.14-16.64-36.77-1.75,2.34-4.12,4.52-6.3,6.77l-1.09.22Z"/>
  <path class="st0" d="M121.57,56.02c.28-.5,1-.32,1.38-.16l4.55-1.96c1.83.15,3.85.38,4.94,1.9v.22c-1.15.94-2.6,1.7-4.11,1.07-2.09.41-5.01,1.62-6.69-.53-.07-.16-.26-.38-.07-.53"/>
  <path class="st0" d="M148.77,61.77c.62.2,1.21.48,1.43,1.15-.18.71.67,1.32.15,1.89-1.71.44-1.87-1.48-3.19-1.96-.19-.26-.25-.58-.23-.92.61-.73,1.17.48,1.84-.16"/>
</svg>