<?xml version="1.0" encoding="UTF-8"?>
<svg id="Layer_1" xmlns="http://www.w3.org/2000/svg" version="1.1" viewBox="0 0 487.05 188.72">
  <!-- Generator: Adobe Illustrator 29.1.0, SVG Export Plug-In . SVG Version: 2.1.0 Build 142)  -->
  <defs>
    <style>
      .st0 {
        fill: #6b8167;
      }
    </style>
  </defs>
  <path class="st0" d="M121.62,67.27c3.51,0,6.47.46,8.88,1.36,2.41.91,4.35,2.19,5.83,3.85,1.47,1.66,2.52,3.64,3.15,5.92.63,2.29.94,4.81.94,7.57v30.55c-.75.13-1.8.3-3.15.52-1.35.22-2.87.42-4.56.61-1.69.19-3.52.36-5.5.52-1.97.16-3.93.23-5.87.23-2.76,0-5.3-.28-7.61-.85-2.32-.56-4.32-1.46-6.02-2.68-1.69-1.22-3.01-2.83-3.95-4.84-.94-2-1.41-4.42-1.41-7.24s.55-5.01,1.64-6.96c1.1-1.94,2.58-3.51,4.46-4.7,1.88-1.19,4.07-2.07,6.58-2.63,2.51-.56,5.14-.84,7.9-.84.88,0,1.79.05,2.73.14.94.1,1.83.22,2.68.38.85.16,1.58.3,2.21.42.63.12,1.06.22,1.32.28v-2.44c0-1.44-.16-2.87-.47-4.28-.31-1.41-.88-2.66-1.69-3.76-.82-1.09-1.93-1.97-3.34-2.63-1.41-.66-3.24-.99-5.5-.99-2.88,0-5.4.2-7.57.61-2.16.41-3.78.83-4.84,1.27h0c-.6-4.19,2.3-8.06,6.49-8.68,2.67-.4,5.33-.72,6.67-.72ZM122.37,111.08c2.07,0,3.9-.05,5.5-.14,1.6-.1,2.93-.27,3.99-.52v-14.57c-.63-.31-1.64-.58-3.05-.8-1.41-.22-3.12-.33-5.12-.33-1.32,0-2.71.09-4.18.28-1.47.19-2.82.58-4.04,1.17-1.22.6-2.24,1.41-3.05,2.44-.82,1.04-1.22,2.4-1.22,4.09,0,3.13,1,5.31,3.01,6.53,2,1.22,4.73,1.83,8.18,1.83Z"/>
  <path class="st0" d="M149.06,135.64c.82-3.62,4.15-5.96,7.86-5.89.01,0,.02,0,.03,0,3.64,0,6.48-.81,8.53-2.43,2.05-1.62,3.9-4.25,5.56-7.89-4.17-7.94-8.05-16.35-11.65-25.24-3.61-8.89-6.6-17.9-8.98-27.03h0c5.74,0,10.81,3.77,12.45,9.28l.1.34c1.02,3.44,2.16,6.98,3.42,10.61,1.26,3.64,2.61,7.27,4.07,10.91,1.45,3.64,2.98,7.14,4.56,10.51,2.51-6.94,4.69-13.82,6.55-20.63,1.06-3.89,2.08-7.85,3.08-11.87,1.33-5.38,6.16-9.16,11.7-9.16h0c-2.38,9.72-5.03,19.06-7.94,28.02-2.91,8.96-6.05,17.34-9.42,25.14-1.32,2.98-2.7,5.54-4.12,7.69-1.42,2.15-2.99,3.92-4.71,5.31-1.72,1.39-3.65,2.41-5.8,3.07-2.15.66-4.58.99-7.29.99-.73,0-1.49-.05-2.28-.15-.79-.1-1.57-.23-2.33-.4-.76-.17-1.46-.35-2.08-.55-.63-.2-1.08-.36-1.34-.5l.04-.16Z"/>
  <path class="st0" d="M213.97,66.94h.05v7.56h-.05v23.26c0,2.52.19,4.6.58,6.25.39,1.65.97,2.94,1.74,3.88.78.94,1.75,1.6,2.91,1.99,1.16.39,2.52.58,4.07.58.78,0,1.87-.16,3.05-.4,3.91-.78,7.74,1.62,8.65,5.5l.03.13c-.91.45-2.49,1.02-4.75,1.7-2.26.68-4.85,1.02-7.75,1.02-3.43,0-6.25-.44-8.48-1.31-2.23-.87-4.02-2.18-5.38-3.93-1.36-1.74-2.31-3.89-2.86-6.45-.55-2.55-.82-5.51-.82-8.87v-35.83c0-5.28,3.81-9.8,9.01-10.7h0s0,15.61,0,15.61Z"/>
  <path class="st0" d="M345.41,69.69c2.07-.52,4.83-1.07,8.26-1.65,3.43-.58,7.39-.87,11.86-.87,4.02,0,7.35.57,10.01,1.7,2.66,1.13,4.78,2.72,6.37,4.76,1.59,2.04,2.71,4.49,3.35,7.34.65,2.85.97,5.99.97,9.43v28.38h0c-4.99,0-9.04-4.05-9.04-9.04v-17.4c0-3.11-.21-5.77-.63-7.97-.42-2.2-1.12-3.98-2.09-5.35s-2.27-2.35-3.89-2.97c-1.62-.62-3.63-.92-6.03-.92-.97,0-1.98.03-3.01.1-1.04.07-2.03.15-2.96.24-.94.1-1.78.21-2.53.34-.75.13-1.28.23-1.6.29v33.63c0,4.99-4.05,9.04-9.04,9.04h0v-49.08Z"/>
  <g>
    <path class="st0" d="M54.17,71.83l2.92.97c.58.25,15.2,5.11,28.34-1.65l2.29-1.12-2.45-.92c-.58-.25-13.5-5.13-28.33,1.55l-2.78,1.16Z"/>
    <path class="st0" d="M93.74,113.92l-2.92-.99c-.58-.25-15.17-5.18-28.34,1.51l-2.29,1.1,2.44.93c.58.25,13.48,5.19,28.33-1.41l2.78-1.15Z"/>
    <path class="st0" d="M56.54,116.15c-.64,0-1.29-.17-1.89-.52-1.75-1.04-2.31-3.3-1.27-5.05.64-1.08,15.98-26.54,34.34-38.95,1.68-1.14,3.98-.69,5.11.99,1.14,1.68.7,3.97-.99,5.11-16.99,11.49-32,36.38-32.14,36.63-.69,1.15-1.91,1.79-3.16,1.79Z"/>
  </g>
  <g>
    <path class="st0" d="M396.15,71.83l2.92.97c.58.25,15.2,5.11,28.34-1.65l2.29-1.12-2.45-.92c-.58-.25-13.5-5.13-28.33,1.55l-2.78,1.16Z"/>
    <path class="st0" d="M435.72,113.92l-2.92-.99c-.58-.25-15.17-5.18-28.34,1.51l-2.29,1.1,2.44.93c.58.25,13.48,5.19,28.33-1.41l2.78-1.15Z"/>
    <path class="st0" d="M398.52,116.15c-.64,0-1.29-.17-1.89-.52-1.75-1.04-2.31-3.3-1.27-5.05.64-1.08,15.98-26.54,34.34-38.95,1.68-1.14,3.98-.69,5.11.99,1.14,1.68.7,3.97-.99,5.11-16.99,11.49-32,36.38-32.14,36.63-.69,1.15-1.91,1.79-3.16,1.79Z"/>
  </g>
  <path class="st0" d="M213.22,68.36l1.77.97c.34.23,9.19,5.05,18.43,2.24l1.6-.45-1.47-.88c-.34-.23-8.09-4.87-18.41-2.3l-1.92.42Z"/>
  <g>
    <path class="st0" d="M285.61,93.57c0,3.59-.52,6.83-1.56,9.72-1.04,2.89-2.5,5.38-4.38,7.46-1.88,2.08-4.12,3.69-6.73,4.82-2.6,1.13-5.44,1.69-8.5,1.69s-5.9-.57-8.5-1.69c-2.6-1.13-4.85-2.74-6.72-4.82-1.88-2.08-3.34-4.57-4.38-7.46-1.04-2.89-1.56-6.13-1.56-9.72s.52-6.75,1.56-9.67c1.04-2.92,2.5-5.42,4.38-7.51,1.88-2.08,4.12-3.69,6.72-4.82s5.44-1.69,8.5-1.69,5.9.56,8.5,1.69,4.84,2.73,6.73,4.82c1.88,2.08,3.34,4.59,4.38,7.51s1.56,6.15,1.56,9.67ZM277.19,93.57c0-5.09-1.14-9.12-3.43-12.1-2.29-2.98-5.4-4.47-9.33-4.47s-7.04,1.49-9.33,4.47c-2.29,2.98-3.43,7.02-3.43,12.1s1.14,9.13,3.43,12.1c2.29,2.98,5.39,4.47,9.33,4.47s7.04-1.49,9.33-4.47c2.29-2.98,3.43-7.01,3.43-12.1Z"/>
    <path class="st0" d="M336.8,93.57c0,3.59-.52,6.83-1.56,9.72-1.04,2.89-2.5,5.38-4.38,7.46-1.88,2.08-4.12,3.69-6.73,4.82-2.6,1.13-5.44,1.69-8.5,1.69s-5.9-.57-8.5-1.69c-2.6-1.13-4.85-2.74-6.72-4.82-1.88-2.08-3.34-4.57-4.38-7.46-1.04-2.89-1.56-6.13-1.56-9.72s.52-6.75,1.56-9.67c1.04-2.92,2.5-5.42,4.38-7.51,1.88-2.08,4.12-3.69,6.72-4.82,2.6-1.13,5.44-1.69,8.5-1.69s5.9.56,8.5,1.69,4.84,2.73,6.73,4.82c1.88,2.08,3.34,4.59,4.38,7.51s1.56,6.15,1.56,9.67ZM328.39,93.57c0-5.09-1.14-9.12-3.43-12.1-2.29-2.98-5.4-4.47-9.33-4.47s-7.04,1.49-9.33,4.47c-2.29,2.98-3.43,7.02-3.43,12.1s1.14,9.13,3.43,12.1c2.29,2.98,5.39,4.47,9.33,4.47s7.04-1.49,9.33-4.47c2.29-2.98,3.43-7.01,3.43-12.1Z"/>
  </g>
</svg>